<?xml version="1.0" standalone="no"?>
<!DOCTYPE svg PUBLIC "-//W3C//DTD SVG 20010904//EN"
 "http://www.w3.org/TR/2001/REC-SVG-20010904/DTD/svg10.dtd">
<svg version="1.0" xmlns="http://www.w3.org/2000/svg"
 width="309.000000pt" height="309.000000pt" viewBox="0 0 309.000000 309.000000"
 preserveAspectRatio="xMidYMid meet">
<metadata>
Created by potrace 1.14, written by Peter Selinger 2001-2017
</metadata>
<g transform="translate(0.000000,309.000000) scale(0.100000,-0.100000)"
fill="#000000" stroke="none">
<path d="M2119 2866 c-2 -2 -22 -6 -44 -9 -54 -8 -150 -42 -199 -71 -146 -86
-226 -220 -242 -403 -9 -102 -9 -945 0 -1048 22 -256 94 -384 259 -465 111
-53 174 -65 352 -64 145 1 167 3 232 26 100 36 158 71 229 142 79 79 105 138
129 286 3 19 8 113 11 208 l6 172 -261 0 -261 0 -1 -177 c-1 -258 -8 -295 -54
-313 -40 -15 -61 -12 -90 13 -37 31 -39 60 -38 652 0 646 0 651 28 683 45 52
143 30 146 -33 1 -14 3 -29 4 -35 1 -5 3 -113 4 -240 l1 -230 261 0 262 0 -6
213 c-3 116 -8 226 -12 242 -3 17 -10 55 -16 85 -32 162 -169 291 -367 346
-51 15 -322 31 -333 20z"/>
<path d="M252 1830 l0 -991 441 4 c243 2 458 7 477 11 54 11 152 60 182 91 43
43 77 123 85 200 10 87 11 1228 1 1310 -8 72 -23 117 -55 168 -65 103 -150
150 -333 183 -19 3 -207 8 -417 11 l-381 5 0 -992z m636 628 c42 -36 43 -40
39 -631 -2 -309 -7 -571 -11 -582 -11 -31 -48 -53 -99 -60 l-47 -7 0 652 0
653 52 -7 c29 -4 59 -12 66 -18z"/>
</g>
</svg>
